{
    "asset" : {
        "generator" : "Khronos glTF Blender I/O v1.5.17",
        "version" : "2.0"
    },
    "extensionsUsed" : [
        "KHR_materials_transmission"
    ],
    "scene" : 0,
    "scenes" : [
        {
            "name" : "Scene",
            "nodes" : [
                0,
                1,
                2,
                3,
                4,
                5,
                6
            ]
        }
    ],
    "nodes" : [
        {
            "name" : "Camera",
            "rotation" : [
                0.5,
                0.5,
                -0.5,
                0.4999999701976776
            ],
            "scale" : [
                1.4600000381469727,
                1,
                1
            ],
            "translation" : [
                25.723281860351562,
                0.43830937147140503,
                -0.7862935066223145
            ]
        },
        {
            "mesh" : 0,
            "name" : "Cylinder.004",
            "rotation" : [
                0.9245458245277405,
                -0.16297921538352966,
                -0.129957377910614,
                0.31900447607040405
            ],
            "scale" : [
                1.3607022762298584,
                1.3607022762298584,
                1.3607022762298584
            ],
            "translation" : [
                -0.02426236867904663,
                0.1219334602355957,
                0.18225324153900146
            ]
        },
        {
            "name" : "Spot",
            "rotation" : [
                -0.36918798089027405,
                -0.11334064602851868,
                -0.2652100622653961,
                0.8834691643714905
            ],
            "scale" : [
                0.3209910988807678,
                0.3215608298778534,
                0.32164445519447327
            ],
            "translation" : [
                0.07695417106151581,
                3.2262163162231445,
                -2.631552219390869
            ]
        },
        {
            "name" : "Spot.001",
            "rotation" : [
                -0.36918798089027405,
                -0.11334064602851868,
                -0.2652100622653961,
                0.8834691643714905
            ],
            "scale" : [
                0.3209910988807678,
                0.3215608298778534,
                0.32164445519447327
            ],
            "translation" : [
                0.07695417106151581,
                3.2262163162231445,
                -2.631552219390869
            ]
        },
        {
            "name" : "Spot.002",
            "rotation" : [
                -0.35628414154052734,
                0.07686981558799744,
                0.023566583171486855,
                0.9309120774269104
            ],
            "scale" : [
                0.4342603385448456,
                0.43503105640411377,
                0.4351440668106079
            ],
            "translation" : [
                -0.17815887928009033,
                3.8749608993530273,
                -2.9986836910247803
            ]
        },
        {
            "name" : "Area",
            "rotation" : [
                0.9288272857666016,
                -0.036572784185409546,
                -0.05727395787835121,
                0.3642280101776123
            ],
            "translation" : [
                0.04675361514091492,
                -1.1739425659179688,
                1.507025122642517
            ]
        },
        {
            "name" : "Spot.003",
            "rotation" : [
                -0.03727221488952637,
                0.014433170668780804,
                -0.950214147567749,
                0.30902358889579773
            ],
            "scale" : [
                0.40574005246162415,
                0.3817692995071411,
                0.506804347038269
            ],
            "translation" : [
                3.1729137897491455,
                -3.057098388671875,
                -0.20112580060958862
            ]
        }
    ],
    "materials" : [
        {
            "doubleSided" : true,
            "extensions" : {
                "KHR_materials_transmission" : {
                    "transmissionFactor" : 0.4000000059604645
                }
            },
            "name" : "Material.083",
            "pbrMetallicRoughness" : {
                "baseColorTexture" : {
                    "index" : 0
                },
                "metallicFactor" : 0
            }
        },
        {
            "doubleSided" : true,
            "extensions" : {
                "KHR_materials_transmission" : {
                    "transmissionFactor" : 0.15000000596046448
                }
            },
            "name" : "Material.016",
            "pbrMetallicRoughness" : {
                "baseColorFactor" : [
                    0.0017422860255464911,
                    0.31107297539711,
                    0,
                    1
                ],
                "metallicFactor" : 0,
                "roughnessFactor" : 0.699999988079071
            }
        },
        {
            "doubleSided" : true,
            "extensions" : {
                "KHR_materials_transmission" : {
                    "transmissionFactor" : 0.15000000596046448
                }
            },
            "name" : "Material.084",
            "pbrMetallicRoughness" : {
                "baseColorFactor" : [
                    0.0017422860255464911,
                    0.31107297539711,
                    0,
                    1
                ],
                "metallicFactor" : 0,
                "roughnessFactor" : 0.699999988079071
            }
        },
        {
            "doubleSided" : true,
            "emissiveFactor" : [
                0.006572200916707516,
                0.002212194725871086,
                0.002526433439925313
            ],
            "extensions" : {
                "KHR_materials_transmission" : {
                    "transmissionFactor" : 0.15000000596046448
                }
            },
            "name" : "Material.009",
            "pbrMetallicRoughness" : {
                "baseColorFactor" : [
                    0.004994835704565048,
                    0.26314303278923035,
                    0.0023638640996068716,
                    1
                ],
                "metallicFactor" : 0,
                "roughnessFactor" : 0.699999988079071
            }
        }
    ],
    "meshes" : [
        {
            "name" : "Cylinder.004",
            "primitives" : [
                {
                    "attributes" : {
                        "POSITION" : 0,
                        "NORMAL" : 1,
                        "TEXCOORD_0" : 2
                    },
                    "indices" : 3,
                    "material" : 0
                },
                {
                    "attributes" : {
                        "POSITION" : 4,
                        "NORMAL" : 5,
                        "TEXCOORD_0" : 6
                    },
                    "indices" : 7,
                    "material" : 1
                },
                {
                    "attributes" : {
                        "POSITION" : 8,
                        "NORMAL" : 9,
                        "TEXCOORD_0" : 10
                    },
                    "indices" : 11,
                    "material" : 2
                },
                {
                    "attributes" : {
                        "POSITION" : 12,
                        "NORMAL" : 13,
                        "TEXCOORD_0" : 14
                    },
                    "indices" : 15,
                    "material" : 3
                }
            ]
        }
    ],
    "textures" : [
        {
            "sampler" : 0,
            "source" : 0
        }
    ],
    "images" : [
        {
            "bufferView" : 4,
            "mimeType" : "image/png",
            "name" : "1"
        }
    ],
    "accessors" : [
        {
            "bufferView" : 0,
            "componentType" : 5126,
            "count" : 771,
            "max" : [
                1,
                1,
                1
            ],
            "min" : [
                -1,
                -1,
                -1
            ],
            "type" : "VEC3"
        },
        {
            "bufferView" : 1,
            "componentType" : 5126,
            "count" : 771,
            "type" : "VEC3"
        },
        {
            "bufferView" : 2,
            "componentType" : 5126,
            "count" : 771,
            "type" : "VEC2"
        },
        {
            "bufferView" : 3,
            "componentType" : 5123,
            "count" : 3780,
            "type" : "SCALAR"
        },
        {
            "bufferView" : 5,
            "componentType" : 5126,
            "count" : 90,
            "max" : [
                0.8387721180915833,
                0.6332406401634216,
                0.8262230157852173
            ],
            "min" : [
                -0.8167418837547302,
                -0.6265771985054016,
                -0.8292906284332275
            ],
            "type" : "VEC3"
        },
        {
            "bufferView" : 6,
            "componentType" : 5126,
            "count" : 90,
            "type" : "VEC3"
        },
        {
            "bufferView" : 7,
            "componentType" : 5126,
            "count" : 90,
            "type" : "VEC2"
        },
        {
            "bufferView" : 8,
            "componentType" : 5123,
            "count" : 228,
            "type" : "SCALAR"
        },
        {
            "bufferView" : 9,
            "componentType" : 5126,
            "count" : 70,
            "max" : [
                0.9145724177360535,
                -0.36754411458969116,
                0.9020233154296875
            ],
            "min" : [
                -0.8925421833992004,
                -0.6377524137496948,
                -0.9050909876823425
            ],
            "type" : "VEC3"
        },
        {
            "bufferView" : 10,
            "componentType" : 5126,
            "count" : 70,
            "type" : "VEC3"
        },
        {
            "bufferView" : 11,
            "componentType" : 5126,
            "count" : 70,
            "type" : "VEC2"
        },
        {
            "bufferView" : 12,
            "componentType" : 5123,
            "count" : 192,
            "type" : "SCALAR"
        },
        {
            "bufferView" : 13,
            "componentType" : 5126,
            "count" : 140,
            "max" : [
                0.6082429885864258,
                0.7839521765708923,
                0.6082429885864258
            ],
            "min" : [
                -0.6082430481910706,
                0.037486135959625244,
                -0.6082429885864258
            ],
            "type" : "VEC3"
        },
        {
            "bufferView" : 14,
            "componentType" : 5126,
            "count" : 140,
            "type" : "VEC3"
        },
        {
            "bufferView" : 15,
            "componentType" : 5126,
            "count" : 140,
            "type" : "VEC2"
        },
        {
            "bufferView" : 16,
            "componentType" : 5123,
            "count" : 384,
            "type" : "SCALAR"
        }
    ],
    "bufferViews" : [
        {
            "buffer" : 0,
            "byteLength" : 9252,
            "byteOffset" : 0
        },
        {
            "buffer" : 0,
            "byteLength" : 9252,
            "byteOffset" : 9252
        },
        {
            "buffer" : 0,
            "byteLength" : 6168,
            "byteOffset" : 18504
        },
        {
            "buffer" : 0,
            "byteLength" : 7560,
            "byteOffset" : 24672
        },
        {
            "buffer" : 0,
            "byteLength" : 33587,
            "byteOffset" : 32232
        },
        {
            "buffer" : 0,
            "byteLength" : 1080,
            "byteOffset" : 65820
        },
        {
            "buffer" : 0,
            "byteLength" : 1080,
            "byteOffset" : 66900
        },
        {
            "buffer" : 0,
            "byteLength" : 720,
            "byteOffset" : 67980
        },
        {
            "buffer" : 0,
            "byteLength" : 456,
            "byteOffset" : 68700
        },
        {
            "buffer" : 0,
            "byteLength" : 840,
            "byteOffset" : 69156
        },
        {
            "buffer" : 0,
            "byteLength" : 840,
            "byteOffset" : 69996
        },
        {
            "buffer" : 0,
            "byteLength" : 560,
            "byteOffset" : 70836
        },
        {
            "buffer" : 0,
            "byteLength" : 384,
            "byteOffset" : 71396
        },
        {
            "buffer" : 0,
            "byteLength" : 1680,
            "byteOffset" : 71780
        },
        {
            "buffer" : 0,
            "byteLength" : 1680,
            "byteOffset" : 73460
        },
        {
            "buffer" : 0,
            "byteLength" : 1120,
            "byteOffset" : 75140
        },
        {
            "buffer" : 0,
            "byteLength" : 768,
            "byteOffset" : 76260
        }
    ],
    "samplers" : [
        {
            "magFilter" : 9729,
            "minFilter" : 9987
        }
    ],
    "buffers" : [
        {
            "byteLength" : 77028,
            "uri" : "data:application/octet-stream;base64,"
        }
    ]
}
